# xmcd
#
# Track frame offsets:
# 150
# 12641
# 28756
# 47408
# 69121
# 81801
# 100192
# 114407
#
# Disc length: 1794 seconds
#
#
# Revision: 0
# Processed by: cddbd v1.5.1PL2 Copyright (c) Steve Scherf et al.
# Submitted via: FreeRIP 2.30 
#
DISCID=59070008
DTITLE=Willie Nelson - Old Whiskey River Compilation
DYEAR=2002
DGENRE=Country
TTITLE0=Whiskey River
TTITLE1=Just Dropped In
TTITLE2=The Great Divide
TTITLE3=Sittin' On Top Of The World
TTITLE4=Playin' Dominoes and Shootin' Dice
TTITLE5=It's a Dream Come True
TTITLE6=Three Days
TTITLE7=Rainbow Connection
EXTD=Came with Whiskey! how awesome is that?
EXTT0=
EXTT1=
EXTT2=
EXTT3=
EXTT4=
EXTT5=
EXTT6=
EXTT7=
PLAYORDER=
